<svg width="328" height="84" viewBox="0 0 328 84" fill="none" xmlns="http://www.w3.org/2000/svg">
<path fill-rule="evenodd" clip-rule="evenodd" d="M177.802 65.514H187.505V0H177.802V65.514ZM230.478 20.6414V27.0133C227.064 22.3466 221.763 19.4747 214.755 19.4747C202.535 19.4747 192.383 29.7057 192.383 43.0777C192.383 56.36 202.535 66.6807 214.755 66.6807C221.763 66.6807 227.064 63.8089 230.478 59.0524V65.514H240.182V20.6414H230.478ZM216.282 57.4369C208.196 57.4369 202.086 51.424 202.086 43.0777C202.086 34.7314 208.196 28.7185 216.282 28.7185C224.368 28.7185 230.478 34.7314 230.478 43.0777C230.478 51.424 224.368 57.4369 216.282 57.4369ZM327.102 27.1031L306.167 56.36H328V65.514H292.959V59.0524L313.984 29.7954H293.858V20.6414H327.102V27.1031ZM23.7198 66.6807C36.9274 66.6807 47.4396 56.36 47.4396 43.0777C47.4396 29.7057 36.9274 19.4747 23.7198 19.4747C10.602 19.4747 0 29.7057 0 43.0777C0 56.36 10.602 66.6807 23.7198 66.6807ZM23.7198 57.2575C15.8132 57.2575 9.70355 51.2445 9.70355 43.0777C9.70355 34.9109 15.8132 28.898 23.7198 28.898C31.6264 28.898 37.736 34.9109 37.736 43.0777C37.736 51.2445 31.6264 57.2575 23.7198 57.2575ZM83.1203 20.6414L70.6315 54.7446L58.0528 20.6414H47.4508L64.9711 65.514H76.2021L93.7224 20.6414H83.1203ZM139.712 47.206H103.952C105.48 54.2061 111.14 57.7959 118.328 57.7959C123.719 57.7959 127.762 55.3728 129.918 52.2317L137.915 56.8985C133.782 63.0012 127.043 66.6807 118.238 66.6807C103.413 66.6807 93.7996 56.5395 93.7996 43.0777C93.7996 29.7954 103.413 19.4747 117.519 19.4747C130.907 19.4747 140.071 30.2441 140.071 43.1675C140.071 44.5136 139.891 45.9496 139.712 47.206ZM117.43 28.2697C110.152 28.2697 105.21 32.5775 103.863 39.3084H130.278C128.93 31.5903 123.27 28.2697 117.43 28.2697ZM170.268 20.7407V30.074H157.569C156.823 30.074 156.359 30.0893 156.075 30.3941C155.783 30.7058 155.733 31.0809 155.733 31.9045V65.1908L145.351 65.3333L145.351 30.1624C145.351 27.357 146.197 25.0583 147.931 23.3248C149.611 21.5836 151.919 20.7407 154.783 20.7407L170.268 20.7407ZM254.217 84V74.8492H277.147C277.892 74.8492 278.356 74.6514 278.64 74.3466C278.932 74.0349 279.125 73.5172 279.125 72.6937V59.5893C278.554 60.7436 277.3 62.1529 276.332 62.9524C274.973 64.0739 273.407 65.0084 271.5 65.7455C269.562 66.4951 267.155 66.8587 264.298 66.8587C260.861 66.8587 257.773 66.0914 255.048 64.5449C252.322 62.9979 250.185 60.7996 248.642 57.9626C247.094 55.1172 246.33 51.7647 246.33 47.924V20.7328H256.66V47.206C256.66 50.9517 257.596 53.6267 259.368 55.3432C261.158 57.0175 263.676 57.8873 266.994 57.8873C270.634 57.8873 273.508 56.6817 275.67 54.2947L275.674 54.2896C277.887 51.9095 279.035 48.4108 279.035 43.706V20.7328H289.364V74.5783C289.364 77.3837 288.518 79.6824 286.785 81.4159C285.104 83.1571 282.796 84 279.932 84H254.217Z" fill="white"/>
</svg>
