<svg width="136" height="32" viewBox="0 0 136 32" fill="none" xmlns="http://www.w3.org/2000/svg">
<path fill-rule="evenodd" clip-rule="evenodd" d="M114.909 5.0329H109.777V0H114.909V5.0329ZM105.13 27.98H109.777L109.777 7.0258H114.909V27.6422C114.909 28.4528 114.909 28.7906 114.605 29.7364C114.267 31.02 113.153 31.8644 110.553 31.9995H105.13V27.98ZM85.6497 25.5232V0.392456H80.5176V25.5232H85.6497ZM55.0331 18.0632H41.3612C42.014 20.4577 44.0086 21.4736 46.4746 21.4736C48.2878 21.4736 49.7384 20.7117 50.5363 19.6596L54.3078 21.8364C52.6034 24.3034 49.8835 25.7183 46.4021 25.7183C40.3095 25.7183 36.4655 21.5461 36.4655 16.1404C36.4655 10.7347 40.3458 6.5625 46.0394 6.5625C51.4066 6.5625 55.2144 10.8073 55.2144 16.1404C55.2144 16.8297 55.1419 17.4465 55.0331 18.0632ZM46.0394 10.771C43.5371 10.771 41.8327 12.1133 41.2887 14.4352H50.5363C49.956 11.8231 47.9977 10.771 46.0394 10.771ZM28.4432 7.41901C26.5524 7.41901 25.3031 7.95945 24.7629 8.90523C24.2227 9.85102 24.0876 10.5941 24.0876 11.7764V25.524H29.2198V11.5737H34.5882V7.41901H28.4432ZM93.6377 25.0525H100.019L106.13 6.94751H100.559L98.4997 14.5138L96.9128 20.5938H96.7102L95.1233 14.48L93.0637 6.94751H87.5264L93.6377 25.0525ZM71.5154 9.35204V7.25514H76.0981V25.0255H71.5154V22.9286C70.2363 24.5279 68.3179 25.5231 65.7245 25.5231C60.9996 25.5231 57.0917 21.4359 57.0917 16.1403C57.0917 10.8447 60.9996 6.75757 65.7245 6.75757C68.3179 6.75757 70.2363 7.75271 71.5154 9.35204ZM61.6746 16.1403C61.6746 19.1257 63.7706 21.1516 66.5771 21.1516C69.4193 21.1516 71.5154 19.1257 71.5154 16.1403C71.5154 13.1549 69.4193 11.1291 66.5771 11.1291C63.7706 11.1291 61.6746 13.1549 61.6746 16.1403ZM120.433 31.9996V27.94H130.393C131.082 27.94 131.426 27.5709 131.426 26.8328V21.9435H130.762C130.565 22.3618 130.258 22.78 129.84 23.1983C129.422 23.6166 128.856 23.961 128.143 24.2317C127.43 24.5023 126.52 24.6376 125.413 24.6376C123.986 24.6376 122.732 24.3178 121.65 23.6781C120.593 23.0138 119.769 22.1034 119.178 20.9471C118.588 19.7907 118.293 18.4621 118.293 16.9613V7.06924H122.941V16.5922C122.941 17.97 123.273 19.0034 123.937 19.6923C124.626 20.3812 125.597 20.7256 126.852 20.7256C128.278 20.7256 129.385 20.2582 130.172 19.3232C130.959 18.3637 131.352 17.0351 131.352 15.3374V7.06924H136V27.8662C136 29.121 135.631 30.1174 134.894 30.8555C134.156 31.6182 133.172 31.9996 131.942 31.9996H120.433ZM19 23.525V26H0V8H19V21.375H13.7874C12.4842 21.375 11.7284 20.9 11.4938 19.95L11.4678 19.8H11.3114C10.8162 20.675 9.85185 21.125 8.44444 21.125C6.0727 21.125 4.76955 19.5 4.76955 16.825C4.76955 14.05 6.15089 12.525 8.5487 12.525C9.93004 12.525 10.8944 12.95 11.4417 13.8H11.5199V12.65H13.6571V19.175H16.3155V10.475H2.86694V23.525H19ZM9.17421 18.9C10.2428 18.9 10.8422 18.25 10.8422 17.225V16.425C10.8422 15.4 10.2428 14.775 9.17421 14.775C8.0535 14.775 7.48011 15.325 7.48011 16.45V17.2C7.48011 18.225 8.10562 18.9 9.17421 18.9Z" fill="#7A7A7B"/>
</svg>
