<svg width="231" height="61" viewBox="0 0 231 61" fill="none" xmlns="http://www.w3.org/2000/svg">
<path d="M173.7 8.53449C176.102 8.53449 177.971 6.57867 177.971 4.26724C177.971 1.95582 176.102 0 173.7 0C171.298 0 169.429 1.95582 169.429 4.26724C169.429 6.57867 171.298 8.53449 173.7 8.53449Z" fill="white"/>
<path d="M170.764 59.9332H176.636V15.4827H170.764V59.9332Z" fill="white"/>
<path fill-rule="evenodd" clip-rule="evenodd" d="M155.127 24.195V2.28627e-05H160.999V59.9332H155.127V51.2209C151.39 57.1773 145.073 61 137.154 61C124.608 61 114.198 50.8653 114.198 37.708C114.198 24.5506 124.608 14.4159 137.154 14.4159C145.073 14.4159 151.39 18.2387 155.127 24.195ZM120.071 37.708C120.071 47.576 127.723 55.3103 137.599 55.3103C147.475 55.3103 155.127 47.576 155.127 37.708C155.127 27.84 147.475 20.1056 137.599 20.1056C127.723 20.1056 120.071 27.84 120.071 37.708Z" fill="white"/>
<path d="M7.85598 27.1288C7.85598 22.3281 12.5717 20.1056 17.1984 20.1056C21.4692 20.1056 26.007 21.7947 27.8754 26.3286L32.7691 23.4838C30.1888 17.972 24.4944 14.4159 17.1984 14.4159C8.30086 14.4159 1.9836 20.0167 1.9836 27.1288C1.9836 36.112 9.81916 38.2582 16.8841 40.1934C22.6839 41.7821 27.9644 43.2285 27.9644 48.1983C27.9644 53.4434 22.9818 55.3103 17.7322 55.3103C11.7709 55.3103 7.14418 52.3766 5.54262 47.8427L0.559998 50.7764C2.78438 56.4661 8.83471 61 17.7322 61C27.2526 61 33.8368 55.7548 33.8368 48.1983C33.8368 39.215 26.0012 37.0688 18.9363 35.1336C13.1365 33.5449 7.85598 32.0985 7.85598 27.1288Z" fill="white"/>
<path d="M101.242 15.4827V38.7748C101.242 50.6875 94.6577 55.3103 86.8279 55.3103C79.087 55.3103 74.7273 50.6875 74.7273 42.7753V15.4827H68.8549V42.7753C68.8549 53.8879 75.4391 61 86.2941 61C92.6113 61 97.7719 58.5997 101.242 52.9989V59.9332H107.114V15.4827H101.242Z" fill="white"/>
<path fill-rule="evenodd" clip-rule="evenodd" d="M230.56 37.708C230.56 50.8653 220.15 61 207.159 61C194.169 61 183.759 50.8653 183.759 37.708C183.759 24.5506 194.169 14.4159 207.159 14.4159C220.15 14.4159 230.56 24.5506 230.56 37.708ZM189.631 37.708C189.631 47.576 197.283 55.3103 207.159 55.3103C217.036 55.3103 224.688 47.576 224.688 37.708C224.688 27.84 217.036 20.1056 207.159 20.1056C197.283 20.1056 189.631 27.84 189.631 37.708Z" fill="white"/>
<path d="M43.988 0H49.9863V14.9833H62.9827V20.9766H49.9863V51.3428C49.9863 52.6097 49.9891 53.3646 50.0384 53.9224C50.0683 54.2601 50.1074 54.4012 50.1205 54.4397C50.2082 54.5913 50.3341 54.7171 50.4858 54.8047C50.5244 54.8178 50.6656 54.8569 51.0036 54.8867C51.5618 54.936 52.3173 54.9388 53.5853 54.9388H62.9827V60.9321L53.4714 60.9321C52.3551 60.9322 51.33 60.9322 50.4753 60.8568C49.5521 60.7752 48.545 60.588 47.5667 60.0405C46.4406 59.4105 45.5109 58.4815 44.8803 57.3564C44.3324 56.3789 44.145 55.3727 44.0634 54.4502C43.9878 53.5962 43.9879 52.5719 43.988 51.4565V20.9766H36.9899V14.9833H43.988V0Z" fill="white"/>
</svg>
